<svg preserveAspectRatio="none" overflow="visible" style="display: block;" width="86.9681" height="86.8459" viewBox="0 0 86.9681 86.8459" fill="none" xmlns="http://www.w3.org/2000/svg">
<g id="Group 31">
<path id="Vector" d="M43.4841 0.667829C19.7155 0.74982 0.666667 19.7924 0.666667 43.3826C0.666667 67.0489 19.7975 86.1793 43.4841 86.1793C67.1618 86.1793 86.3014 67.0489 86.3014 43.3826C86.3014 19.6196 67.0798 0.49506 43.4841 0.667829Z" stroke="#606060" stroke-width="1.33333" stroke-miterlimit="10"/>
<path id="Vector_2" d="M58.7476 65.6697C57.4322 63.986 52.6421 63.2832 50.3921 62.9874L51.8921 60.8615C53.483 61.1426 55.0298 61.5467 56.5621 62.0943C58.1382 62.6946 59.9107 63.5321 60.8834 64.8908C61.4986 65.7517 61.5191 66.8176 60.9244 67.6814C59.1373 70.2935 53.6939 71.5409 50.5679 71.9919C45.5933 72.7122 40.5396 72.68 35.5826 71.8601C32.6675 71.3799 27.4175 70.0651 25.9292 67.4999C25.1382 66.1382 25.8472 64.8147 27.0279 63.8805C29.1285 62.2231 32.4449 61.3505 35.0669 60.8673L36.5699 62.9933C35.0376 63.1865 33.6109 63.4149 32.1578 63.7839C30.8716 64.1324 28.9468 64.6858 28.191 65.6931C27.8687 66.1265 27.9273 66.6448 28.2847 67.0489C29.8433 68.8 35.3218 69.5409 37.8501 69.7693C41.7584 70.1265 45.6402 70.1119 49.5396 69.7283C51.983 69.4882 57.1187 68.7503 58.6509 67.0782C59.0318 66.6624 59.0933 66.109 58.7476 65.6697Z" fill="#606060"/>
<path id="Vector_3" d="M50.9595 54.5424C53.4673 50.7093 56.0689 46.3667 57.9175 42.2436C58.855 40.1558 60.0298 37.0782 60.1441 34.8644C60.481 28.2758 57.0123 21.9449 51.2232 18.7852C46.0669 15.9712 39.7681 16.1879 34.8082 19.3358C29.6373 22.6184 26.5816 28.5013 26.8101 34.6331C26.9039 37.1777 28.2515 40.5423 29.3472 42.8966C31.7876 48.1383 35.4644 53.9011 38.7984 58.6654C40.316 60.8323 41.8306 62.9495 43.4888 65.0725C46.1255 61.62 48.5865 58.1705 50.9595 54.5424ZM52.6324 56.1559C49.7437 60.519 46.7173 64.6801 43.4859 68.7826C40.2662 64.7094 37.2691 60.5776 34.4185 56.2818C31.6441 52.1002 28.647 47.1309 26.6548 42.5628C25.6382 40.2348 24.4869 37.0782 24.4166 34.5686C24.2203 27.5086 27.7886 20.7706 33.7916 17.0839C39.9234 13.3152 47.6812 13.4411 53.6871 17.406C59.4175 21.1923 62.7867 27.7985 62.5435 34.6887C62.4644 36.9288 61.4859 39.7546 60.6128 41.8542C58.6412 46.598 55.5064 51.8074 52.6324 56.1559Z" fill="#606060"/>
<path id="Vector_4" d="M51.99 34.1442C51.99 29.4473 48.1814 25.6405 43.4822 25.6405C38.783 25.6405 34.9744 29.4473 34.9744 34.1442C34.9744 38.8382 38.783 42.645 43.4822 42.645C48.1814 42.645 51.99 38.8382 51.99 34.1442ZM50.698 42.3844C46.6609 46.2087 40.4441 46.2321 36.3719 42.481C31.8045 38.2702 31.5203 31.0315 35.7185 26.4546C39.9197 21.8777 47.0008 21.8572 51.2166 26.4282C55.3914 30.9524 55.198 38.1267 50.698 42.3844Z" fill="#606060"/>
</g>
</svg>
